<svg width="23" height="23" viewBox="0 0 23 23" fill="none" xmlns="http://www.w3.org/2000/svg">
<path d="M22.731 11.3655C22.731 5.08809 17.6429 0 11.3655 0C5.08809 0 0 5.08809 0 11.3655C0 17.0385 4.15618 21.7405 9.58967 22.5925V14.65H6.70431V11.3639H9.58967V8.85976C9.58967 6.01186 11.2857 4.43802 13.8827 4.43802C15.1258 4.43802 16.4275 4.6596 16.4275 4.6596V7.45699H14.9938C13.5813 7.45699 13.1414 8.33352 13.1414 9.23122V11.3639H16.2939L15.7905 14.65H13.143V22.5925C18.5765 21.7405 22.7327 17.0385 22.7327 11.3655H22.731Z" fill="white"/>
<path d="M15.7891 14.6516L16.2925 11.3654H13.14V9.23277C13.14 8.33344 13.5798 7.45854 14.9924 7.45854H16.4261V4.66115C16.4261 4.66115 15.126 4.43958 13.8812 4.43958C11.2842 4.43958 9.58824 6.01341 9.58824 8.86131V11.3654H6.70288V14.6516H9.58824V22.5941C10.1666 22.6853 10.7596 22.7326 11.3641 22.7326C11.9685 22.7326 12.5616 22.6853 13.14 22.5941V14.6516H15.7875H15.7891Z" fill="black"/>
</svg>
