<svg width="24" height="23" viewBox="0 0 24 23" fill="none" xmlns="http://www.w3.org/2000/svg">
<path d="M11.9241 22.731C18.2011 22.731 23.2896 17.6425 23.2896 11.3655C23.2896 5.08851 18.2011 0 11.9241 0C5.64711 0 0.558594 5.08851 0.558594 11.3655C0.558594 17.6425 5.64711 22.731 11.9241 22.731Z" fill="white"/>
<path d="M15.4519 7.0658C15.0202 7.0658 14.6699 7.41608 14.6699 7.84782C14.6699 8.27957 15.0202 8.62986 15.4519 8.62986C15.8837 8.62986 16.234 8.27957 16.234 7.84782C16.234 7.41608 15.8837 7.0658 15.4519 7.0658Z" fill="black"/>
<path d="M11.9786 8.06787C10.1685 8.06787 8.69727 9.5407 8.69727 11.3491C8.69727 13.1576 10.1701 14.6304 11.9786 14.6304C13.787 14.6304 15.2598 13.1576 15.2598 11.3491C15.2598 9.5407 13.787 8.06787 11.9786 8.06787ZM11.9786 13.4525C10.8185 13.4525 9.87683 12.5092 9.87683 11.3508C9.87683 10.1924 10.8202 9.24906 11.9786 9.24906C13.1369 9.24906 14.0802 10.1924 14.0802 11.3508C14.0802 12.5092 13.1369 13.4525 11.9786 13.4525Z" fill="black"/>
<path d="M14.5834 18.0128H9.26227C7.05466 18.0128 5.25928 16.2174 5.25928 14.0098V8.68869C5.25928 6.48108 7.05466 4.68567 9.26227 4.68567H14.5834C16.791 4.68567 18.5864 6.48108 18.5864 8.68869V14.0098C18.5864 16.2174 16.791 18.0128 14.5834 18.0128ZM9.26227 5.94018C7.74708 5.94018 6.51378 7.1735 6.51378 8.68869V14.0098C6.51378 15.5249 7.74708 16.7583 9.26227 16.7583H14.5834C16.0985 16.7583 17.3319 15.5249 17.3319 14.0098V8.68869C17.3319 7.17187 16.0985 5.94018 14.5834 5.94018H9.26227Z" fill="black"/>
</svg>
