<svg width="56" height="30" viewBox="0 0 56 30" fill="none" xmlns="http://www.w3.org/2000/svg">
<path d="M4.155 7.97H8.775V10.64H4.155V7.97ZM4.395 14H0.855V3.5H9.39V6.17H4.395V14ZM16.5083 14V3.5H20.0483V14H16.5083ZM31.6675 14.24C30.7875 14.24 29.9375 14.14 29.1175 13.94C28.2975 13.74 27.6225 13.48 27.0925 13.16L28.2325 10.58C28.7325 10.87 29.2875 11.105 29.8975 11.285C30.5175 11.455 31.1175 11.54 31.6975 11.54C32.0375 11.54 32.3025 11.52 32.4925 11.48C32.6925 11.43 32.8375 11.365 32.9275 11.285C33.0175 11.195 33.0625 11.09 33.0625 10.97C33.0625 10.78 32.9575 10.63 32.7475 10.52C32.5375 10.41 32.2575 10.32 31.9075 10.25C31.5675 10.17 31.1925 10.09 30.7825 10.01C30.3725 9.92 29.9575 9.805 29.5375 9.665C29.1275 9.525 28.7475 9.34 28.3975 9.11C28.0575 8.88 27.7825 8.58 27.5725 8.21C27.3625 7.83 27.2575 7.36 27.2575 6.8C27.2575 6.15 27.4375 5.56 27.7975 5.03C28.1675 4.49 28.7125 4.06 29.4325 3.74C30.1625 3.42 31.0675 3.26 32.1475 3.26C32.8575 3.26 33.5575 3.335 34.2475 3.485C34.9375 3.635 35.5575 3.865 36.1075 4.175L35.0425 6.74C34.5225 6.48 34.0175 6.285 33.5275 6.155C33.0475 6.025 32.5775 5.96 32.1175 5.96C31.7775 5.96 31.5075 5.99 31.3075 6.05C31.1075 6.11 30.9625 6.19 30.8725 6.29C30.7925 6.39 30.7525 6.5 30.7525 6.62C30.7525 6.8 30.8575 6.945 31.0675 7.055C31.2775 7.155 31.5525 7.24 31.8925 7.31C32.2425 7.38 32.6225 7.455 33.0325 7.535C33.4525 7.615 33.8675 7.725 34.2775 7.865C34.6875 8.005 35.0625 8.19 35.4025 8.42C35.7525 8.65 36.0325 8.95 36.2425 9.32C36.4525 9.69 36.5575 10.15 36.5575 10.7C36.5575 11.34 36.3725 11.93 36.0025 12.47C35.6425 13 35.1025 13.43 34.3825 13.76C33.6625 14.08 32.7575 14.24 31.6675 14.24ZM50.4209 3.5H53.9609V14H50.4209V3.5ZM47.1509 14H43.6109V3.5H47.1509V14ZM50.6609 10.13H46.9109V7.22H50.6609V10.13Z" fill="white"/>
<path d="M4.095 26L0.555 15.5H1.695L5.01 25.385H4.44L7.86 15.5H8.88L12.255 25.385H11.715L15.06 15.5H16.125L12.585 26H11.415L8.19 16.625H8.49L5.25 26H4.095ZM21.3123 26.09C20.5223 26.09 19.7873 25.96 19.1073 25.7C18.4373 25.43 17.8523 25.055 17.3523 24.575C16.8623 24.085 16.4773 23.52 16.1973 22.88C15.9273 22.23 15.7923 21.52 15.7923 20.75C15.7923 19.98 15.9273 19.275 16.1973 18.635C16.4773 17.985 16.8623 17.42 17.3523 16.94C17.8523 16.45 18.4373 16.075 19.1073 15.815C19.7773 15.545 20.5123 15.41 21.3123 15.41C22.1023 15.41 22.8323 15.545 23.5023 15.815C24.1723 16.075 24.7523 16.445 25.2423 16.925C25.7423 17.405 26.1273 17.97 26.3973 18.62C26.6773 19.27 26.8173 19.98 26.8173 20.75C26.8173 21.52 26.6773 22.23 26.3973 22.88C26.1273 23.53 25.7423 24.095 25.2423 24.575C24.7523 25.055 24.1723 25.43 23.5023 25.7C22.8323 25.96 22.1023 26.09 21.3123 26.09ZM21.3123 25.1C21.9423 25.1 22.5223 24.995 23.0523 24.785C23.5923 24.565 24.0573 24.26 24.4473 23.87C24.8473 23.47 25.1573 23.01 25.3773 22.49C25.5973 21.96 25.7073 21.38 25.7073 20.75C25.7073 20.12 25.5973 19.545 25.3773 19.025C25.1573 18.495 24.8473 18.035 24.4473 17.645C24.0573 17.245 23.5923 16.94 23.0523 16.73C22.5223 16.51 21.9423 16.4 21.3123 16.4C20.6823 16.4 20.0973 16.51 19.5573 16.73C19.0173 16.94 18.5473 17.245 18.1473 17.645C17.7573 18.035 17.4473 18.495 17.2173 19.025C16.9973 19.545 16.8873 20.12 16.8873 20.75C16.8873 21.37 16.9973 21.945 17.2173 22.475C17.4473 23.005 17.7573 23.47 18.1473 23.87C18.5473 24.26 19.0173 24.565 19.5573 24.785C20.0973 24.995 20.6823 25.1 21.3123 25.1ZM27.9553 26V15.5H31.8853C32.7753 15.5 33.5403 15.645 34.1803 15.935C34.8203 16.215 35.3103 16.625 35.6503 17.165C36.0003 17.695 36.1753 18.34 36.1753 19.1C36.1753 19.84 36.0003 20.48 35.6503 21.02C35.3103 21.55 34.8203 21.96 34.1803 22.25C33.5403 22.53 32.7753 22.67 31.8853 22.67H28.5703L29.0653 22.16V26H27.9553ZM35.1253 26L32.4253 22.19H33.6253L36.3403 26H35.1253ZM29.0653 22.25L28.5703 21.725H31.8553C32.9053 21.725 33.7003 21.495 34.2403 21.035C34.7903 20.575 35.0653 19.93 35.0653 19.1C35.0653 18.26 34.7903 17.61 34.2403 17.15C33.7003 16.69 32.9053 16.46 31.8553 16.46H28.5703L29.0653 15.935V22.25ZM37.4452 26V15.5H38.5552V25.04H44.4352V26H37.4452ZM44.9282 26V15.5H49.2032C50.3232 15.5 51.3032 15.725 52.1432 16.175C52.9932 16.615 53.6532 17.23 54.1232 18.02C54.5932 18.81 54.8282 19.72 54.8282 20.75C54.8282 21.78 54.5932 22.69 54.1232 23.48C53.6532 24.27 52.9932 24.89 52.1432 25.34C51.3032 25.78 50.3232 26 49.2032 26H44.9282ZM46.0382 25.04H49.1432C50.0732 25.04 50.8782 24.86 51.5582 24.5C52.2482 24.13 52.7832 23.625 53.1632 22.985C53.5432 22.335 53.7332 21.59 53.7332 20.75C53.7332 19.9 53.5432 19.155 53.1632 18.515C52.7832 17.875 52.2482 17.375 51.5582 17.015C50.8782 16.645 50.0732 16.46 49.1432 16.46H46.0382V25.04Z" fill="white"/>
</svg>
