<svg width="23" height="23" viewBox="0 0 23 23" fill="none" xmlns="http://www.w3.org/2000/svg">
<path d="M11.481 0C5.20357 0 0.115479 5.08809 0.115479 11.3655C0.115479 15.9893 2.88029 19.9597 6.84421 21.7356C6.83117 21.4162 6.8165 21.0969 6.8279 20.7759C6.86537 19.6697 7.00061 19.2901 8.42618 13.2994C8.44736 13.2082 8.42456 13.1316 8.39361 13.0501C8.0531 12.1296 7.98468 11.1961 8.28283 10.2495C8.92801 8.20643 11.2448 8.0484 11.6504 9.73628C11.8997 10.779 11.2399 12.1443 10.7332 14.1613C10.3128 15.8263 12.2728 17.0092 13.9477 15.7938C15.4922 14.6745 16.0917 11.9879 15.9777 10.0849C15.7529 6.29045 11.5918 5.46933 8.95079 6.69125C5.92368 8.09076 5.23616 11.8429 6.60309 13.5568C6.77578 13.7751 6.90939 13.9087 6.85236 14.1287C6.76438 14.4725 6.68617 14.8179 6.59167 15.16C6.52161 15.4141 6.30817 15.507 6.05238 15.4027C5.54895 15.1991 5.12861 14.8781 4.7881 14.4562C3.62809 13.0192 3.29573 10.1762 4.83046 7.7698C6.52975 5.10275 9.6921 4.02582 12.5807 4.35167C16.0298 4.74431 18.2097 7.10018 18.617 9.77375C18.8028 10.9908 18.6692 13.9935 16.9601 16.1163C14.9936 18.5553 11.8052 18.7166 10.3356 17.2193C10.2216 17.1053 10.132 16.9701 10.0212 16.8332C10.0049 16.8886 9.99025 16.9342 9.97722 16.9815C9.27176 19.7479 9.19192 20.3621 8.46692 21.646C8.3545 21.8431 8.23069 22.0321 8.11012 22.2227C9.17564 22.5534 10.3096 22.7326 11.4826 22.7326C17.76 22.7326 22.8481 17.6446 22.8481 11.3671C22.8481 5.08971 17.76 0.00163082 11.4826 0.00163082L11.481 0Z" fill="white"/>
<path d="M9.97531 16.9799C9.98672 16.9327 10.003 16.8871 10.0193 16.8317C10.1301 16.9685 10.2213 17.1037 10.3337 17.2178C11.8049 18.7151 14.9917 18.5521 16.9582 16.1148C18.6673 13.9919 18.8009 10.9892 18.6151 9.77221C18.2062 7.09864 16.0263 4.74278 12.5788 4.35013C9.69182 4.02266 6.52948 5.1012 4.82856 7.76825C3.29383 10.1746 3.62619 13.0176 4.7862 14.4546C5.12671 14.8766 5.54705 15.1975 6.05048 15.4012C6.3079 15.5055 6.51971 15.4126 6.58977 15.1584C6.68426 14.8163 6.76248 14.4709 6.85046 14.1271C6.90749 13.9056 6.77388 13.7736 6.60119 13.5553C5.23426 11.8413 5.92341 8.08921 8.94889 6.6897C11.5899 5.46778 15.7509 6.28729 15.9758 10.0834C16.0898 11.9863 15.4903 14.6729 13.9458 15.7922C12.2709 17.0076 10.311 15.8248 10.7313 14.1597C11.238 12.1427 11.8978 10.7774 11.6485 9.73474C11.2429 8.04848 8.92611 8.20488 8.28093 10.2479C7.98278 11.1945 8.0512 12.1281 8.39171 13.0486C8.42266 13.1317 8.44546 13.2066 8.42428 13.2979C6.99871 19.2902 6.86347 19.6698 6.826 20.7744C6.8146 21.0954 6.82927 21.4147 6.84231 21.734C7.25287 21.9181 7.67159 22.0859 8.10659 22.2212C8.22716 22.0305 8.35097 21.8415 8.46338 21.6444C9.18839 20.3606 9.2666 19.7464 9.97368 16.9799H9.97531Z" fill="black"/>
</svg>
